<svg width="248" height="42" viewBox="0 0 248 42" fill="none" xmlns="http://www.w3.org/2000/svg">
<path d="M65.075 18.45C64.325 18.45 63.5583 18.5625 62.775 18.7875C61.9917 19.0125 61.1917 19.3667 60.375 19.85L61.4 28.7H70.625L71.675 19.475H71.575C70.9417 19.475 70.325 19.425 69.725 19.325C69.125 19.225 68.3667 19.0334 67.45 18.75C67.0667 18.65 66.6708 18.575 66.2625 18.525C65.8542 18.475 65.4583 18.45 65.075 18.45ZM60 16.45C60.85 16.0667 61.7 15.7834 62.55 15.6C63.4 15.4167 64.25 15.325 65.1 15.325C65.6333 15.325 66.1667 15.3625 66.7 15.4375C67.2333 15.5125 67.7583 15.6167 68.275 15.75C69.125 15.9834 69.7625 16.1417 70.1875 16.225C70.6125 16.3084 71.0667 16.35 71.55 16.35H72.025L72.325 13.3H59.675L60 16.45ZM61.375 31.85C60.575 31.85 59.875 31.5834 59.275 31.05C58.675 30.5167 58.3333 29.85 58.25 29.05L56.15 10.15H75.85L73.775 29.05C73.6917 29.85 73.35 30.5167 72.75 31.05C72.15 31.5834 71.45 31.85 70.65 31.85H61.375ZM65.075 28.725H67.45C68.3667 28.725 69.0792 28.7209 69.5875 28.7125C70.0958 28.7042 70.4417 28.7 70.625 28.7H61.4C61.7167 28.7 62.2208 28.7042 62.9125 28.7125C63.6042 28.7209 64.325 28.725 65.075 28.725Z" fill="white"/>
<path d="M84.2851 12.3784C84.4872 12.396 84.7157 12.4136 84.9706 12.4312C85.1903 12.4487 85.4452 12.4619 85.7353 12.4707C86.0341 12.4795 86.3593 12.4839 86.7108 12.4839C87.203 12.4839 87.7304 12.4707 88.2929 12.4443C88.8642 12.4092 89.4267 12.3433 89.9804 12.2466C89.8749 12.4487 89.7826 12.7212 89.7035 13.064C89.6332 13.3979 89.5717 13.7891 89.519 14.2373C89.8793 13.4463 90.3583 12.8311 90.956 12.3916C91.5624 11.9521 92.3271 11.7324 93.2499 11.7324C93.4521 11.7324 93.7069 11.7456 94.0146 11.772C94.331 11.7983 94.6606 11.8862 95.0033 12.0356C95.3549 12.1851 95.7021 12.418 96.0448 12.7344C96.3964 13.042 96.7084 13.4814 96.9809 14.0527C97.2621 14.624 97.4862 15.3447 97.6532 16.2148C97.829 17.0762 97.9169 18.1396 97.9169 19.4053C97.9169 20.46 97.8378 21.4048 97.6796 22.2397C97.5302 23.0659 97.3236 23.7954 97.06 24.4282C96.8051 25.061 96.5019 25.6016 96.1503 26.0498C95.8075 26.4893 95.4428 26.8496 95.0561 27.1309C94.6781 27.4121 94.287 27.6143 93.8827 27.7373C93.4872 27.8691 93.1049 27.9351 92.7357 27.9351C92.3051 27.9351 91.9052 27.8472 91.536 27.6714C91.1757 27.4956 90.8549 27.2539 90.5736 26.9463C90.2924 26.6299 90.0507 26.2563 89.8485 25.8257C89.6464 25.3862 89.4926 24.9072 89.3871 24.3887C89.3959 24.793 89.4135 25.2632 89.4398 25.7993C89.4662 26.3354 89.497 26.8936 89.5321 27.4736C89.5673 28.0449 89.6068 28.6206 89.6508 29.2007C89.6947 29.7808 89.7431 30.3169 89.7958 30.8091C89.8485 31.3101 89.9057 31.7451 89.9672 32.1143C90.0375 32.4834 90.1122 32.7471 90.1913 32.9053C89.4882 32.7822 88.8334 32.6987 88.227 32.6548C87.6205 32.6196 87.0712 32.6021 86.579 32.6021C86.2626 32.6021 85.977 32.6064 85.7221 32.6152C85.4672 32.624 85.2519 32.6372 85.0761 32.6548C84.8651 32.6724 84.6806 32.6899 84.5224 32.7075C84.6103 32.2681 84.6938 31.6924 84.7729 30.9805C84.852 30.2773 84.9179 29.4819 84.9706 28.5942C85.0321 27.7153 85.0805 26.7705 85.1156 25.7598C85.1508 24.7402 85.1684 23.6987 85.1684 22.6353C85.1684 21.6597 85.1508 20.6885 85.1156 19.7217C85.0893 18.7549 85.0409 17.8276 84.9706 16.9399C84.9003 16.0522 84.808 15.2217 84.6938 14.4482C84.5795 13.666 84.4433 12.9761 84.2851 12.3784ZM89.7035 18.8647V20.9873C89.7035 21.2246 89.7167 21.4663 89.7431 21.7124C89.7694 21.9585 89.8266 22.1826 89.9145 22.3848C90.0111 22.5869 90.1474 22.7539 90.3232 22.8857C90.4989 23.0088 90.7362 23.0703 91.0351 23.0703C91.246 23.0703 91.4262 22.9868 91.5756 22.8198C91.725 22.6528 91.8481 22.4375 91.9447 22.1738C92.0414 21.9102 92.1205 21.6157 92.182 21.2905C92.2436 20.9653 92.2875 20.6445 92.3139 20.3281C92.3402 20.0029 92.3578 19.7041 92.3666 19.4316C92.3754 19.1504 92.3798 18.9307 92.3798 18.7725C92.3798 18.5352 92.3666 18.2451 92.3402 17.9023C92.3227 17.5596 92.2743 17.2256 92.1952 16.9004C92.1161 16.5752 91.9931 16.2983 91.8261 16.0698C91.6679 15.8413 91.4482 15.7271 91.1669 15.7271C90.8505 15.7271 90.5956 15.8413 90.4023 16.0698C90.2089 16.2896 90.0595 16.562 89.954 16.8872C89.8573 17.2036 89.7914 17.5464 89.7563 17.9155C89.7211 18.2759 89.7035 18.5923 89.7035 18.8647ZM110.52 15.2393C110.52 15.8984 110.424 16.54 110.23 17.1641C110.046 17.7881 109.716 18.3418 109.242 18.8252C108.767 19.3086 108.125 19.6953 107.317 19.9854C106.517 20.2754 105.497 20.4204 104.258 20.4204C104.293 20.8511 104.381 21.2114 104.522 21.5015C104.671 21.7915 104.847 22.0244 105.049 22.2002C105.251 22.376 105.467 22.5078 105.695 22.5957C105.924 22.6836 106.135 22.7451 106.328 22.7803C106.521 22.8154 106.684 22.833 106.816 22.833C106.948 22.833 107.014 22.833 107.014 22.833C107.559 22.7715 108.046 22.6309 108.477 22.4111C108.662 22.3232 108.842 22.2134 109.017 22.0815C109.193 21.9409 109.351 21.7783 109.492 21.5938C109.642 21.4004 109.76 21.1851 109.848 20.9478C109.945 20.7017 110.002 20.4204 110.019 20.104C110.248 20.6753 110.406 21.2114 110.494 21.7124C110.591 22.2046 110.639 22.666 110.639 23.0967C110.639 23.8877 110.494 24.6172 110.204 25.2852C109.923 25.9443 109.532 26.5156 109.031 26.999C108.53 27.4824 107.932 27.856 107.238 28.1196C106.552 28.3921 105.805 28.5283 104.996 28.5283C104.205 28.5283 103.441 28.3921 102.703 28.1196C101.973 27.8472 101.323 27.4165 100.751 26.8276C100.189 26.23 99.7362 25.4565 99.3935 24.5073C99.0595 23.5581 98.8925 22.4067 98.8925 21.0532C98.8925 19.5854 99.1034 18.2847 99.5253 17.1509C99.9472 16.0171 100.514 15.0679 101.226 14.3032C101.938 13.5298 102.76 12.9453 103.691 12.5498C104.632 12.1455 105.616 11.9434 106.644 11.9434C107.154 11.9434 107.642 12.0005 108.108 12.1147C108.582 12.229 108.996 12.418 109.347 12.6816C109.707 12.9453 109.993 13.2881 110.204 13.71C110.415 14.123 110.52 14.6328 110.52 15.2393ZM104.205 18.2451C104.452 18.2363 104.737 18.188 105.062 18.1001C105.388 18.0034 105.695 17.8716 105.985 17.7046C106.275 17.5376 106.517 17.3311 106.71 17.085C106.913 16.8389 107.014 16.5576 107.014 16.2412C107.014 16.0391 106.943 15.8765 106.803 15.7534C106.662 15.6304 106.482 15.5688 106.262 15.5688C105.954 15.5688 105.678 15.6567 105.432 15.8325C105.194 16.0083 104.988 16.228 104.812 16.4917C104.645 16.7554 104.509 17.0454 104.403 17.3618C104.298 17.6782 104.232 17.9727 104.205 18.2451ZM119.512 30.9014C119.512 31.5078 119.371 31.978 119.09 32.312C118.809 32.646 118.453 32.8921 118.022 33.0503C117.591 33.2085 117.117 33.3008 116.598 33.3271C116.088 33.3623 115.6 33.3799 115.135 33.3799C115.179 33.1953 115.209 33.0063 115.227 32.813C115.253 32.6196 115.267 32.4131 115.267 32.1934C115.267 32.0352 115.258 31.8682 115.24 31.6924C115.223 31.5166 115.187 31.354 115.135 31.2046C115.187 31.2573 115.271 31.3057 115.385 31.3496C115.508 31.3936 115.636 31.4287 115.767 31.4551C115.899 31.4814 116.027 31.5034 116.15 31.521C116.282 31.5386 116.387 31.5474 116.466 31.5474C116.704 31.5474 116.919 31.4902 117.112 31.376C117.306 31.2705 117.402 31.0771 117.402 30.7959C117.402 30.6553 117.367 30.5322 117.297 30.4268C117.226 30.3301 117.134 30.251 117.02 30.1895C116.906 30.1279 116.783 30.0796 116.651 30.0444C116.519 30.0181 116.392 30.0049 116.268 30.0049C116.119 30.0049 115.965 30.0137 115.807 30.0312C115.658 30.0576 115.508 30.0972 115.359 30.1499L116.11 28.0405C115.372 27.856 114.717 27.5264 114.146 27.0518C113.583 26.5684 113.109 25.9927 112.722 25.3247C112.335 24.6479 112.041 23.9053 111.839 23.0967C111.645 22.2793 111.549 21.4531 111.549 20.6182C111.549 19.9326 111.619 19.2383 111.76 18.5352C111.909 17.8232 112.12 17.1377 112.392 16.4785C112.674 15.8193 113.017 15.2041 113.421 14.6328C113.825 14.0527 114.282 13.5474 114.792 13.1167C115.302 12.686 115.86 12.3477 116.466 12.1016C117.081 11.8555 117.736 11.7324 118.431 11.7324C119.055 11.7324 119.604 11.8071 120.079 11.9565C120.553 12.106 120.966 12.3037 121.318 12.5498C121.669 12.7959 121.959 13.0815 122.188 13.4067C122.416 13.7231 122.601 14.0527 122.742 14.3955C122.882 14.7295 122.979 15.0635 123.032 15.3975C123.093 15.7314 123.124 16.0391 123.124 16.3203C123.124 16.6631 123.062 17.019 122.939 17.3882C122.825 17.7573 122.654 18.0957 122.425 18.4033C122.197 18.7021 121.907 18.9482 121.555 19.1416C121.204 19.335 120.799 19.4316 120.342 19.4316C119.955 19.4316 119.626 19.3657 119.353 19.2339C119.081 19.1021 118.857 18.9307 118.681 18.7197C118.505 18.5088 118.373 18.2671 118.286 17.9946C118.206 17.7134 118.167 17.4277 118.167 17.1377C118.167 16.5225 118.316 15.9907 118.615 15.5425C118.659 15.6919 118.721 15.8062 118.8 15.8853C118.888 15.9556 118.967 16.0083 119.037 16.0435C119.125 16.0786 119.213 16.1006 119.301 16.1094C119.556 16.1094 119.718 16.0522 119.788 15.938C119.859 15.8237 119.903 15.6919 119.92 15.5425C119.92 15.3931 119.863 15.248 119.749 15.1074C119.635 14.9668 119.437 14.8965 119.156 14.8965C119.077 14.8965 118.962 14.9097 118.813 14.936C118.672 14.9536 118.51 15.0063 118.325 15.0942C118.149 15.1821 117.969 15.314 117.785 15.4897C117.6 15.6567 117.429 15.894 117.27 16.2017C117.121 16.5005 116.998 16.8784 116.901 17.3354C116.805 17.7837 116.756 18.3286 116.756 18.9702C116.756 19.6294 116.853 20.1655 117.046 20.5786C117.24 20.9829 117.468 21.2993 117.732 21.5278C118.004 21.7476 118.29 21.897 118.589 21.9761C118.888 22.0552 119.142 22.0947 119.353 22.0947C119.538 22.0947 119.771 22.064 120.052 22.0024C120.333 21.9321 120.61 21.8091 120.883 21.6333C121.164 21.4575 121.419 21.2158 121.647 20.9082C121.876 20.5918 122.03 20.1875 122.109 19.6953C122.346 20.0469 122.535 20.4688 122.676 20.9609C122.816 21.4443 122.887 21.9497 122.887 22.4771C122.887 23.2153 122.755 23.9141 122.491 24.5732C122.227 25.2324 121.858 25.8169 121.384 26.3267C120.909 26.8364 120.338 27.2539 119.67 27.5791C119.011 27.9131 118.281 28.1108 117.481 28.1724L117.35 28.7393C117.675 28.7393 117.969 28.792 118.233 28.8975C118.496 29.0029 118.721 29.1523 118.905 29.3457C119.099 29.5391 119.248 29.7676 119.353 30.0312C119.459 30.2949 119.512 30.585 119.512 30.9014ZM137.705 27.6846C137.538 27.667 137.345 27.6494 137.125 27.6318C136.94 27.6143 136.716 27.6011 136.453 27.5923C136.198 27.5835 135.916 27.5791 135.609 27.5791C135.169 27.5791 134.686 27.5967 134.159 27.6318C133.64 27.667 133.104 27.7329 132.55 27.8296L132.603 24.125C132.269 25.4346 131.777 26.4453 131.126 27.1572C130.485 27.8691 129.729 28.2251 128.859 28.2251C128.586 28.2251 128.279 28.1899 127.936 28.1196C127.593 28.0493 127.242 27.9131 126.881 27.7109C126.53 27.5176 126.183 27.2451 125.84 26.8936C125.506 26.542 125.207 26.0894 124.943 25.5356C124.68 24.9731 124.469 24.2964 124.31 23.5054C124.152 22.7056 124.073 21.7607 124.073 20.6709C124.073 19.1943 124.223 17.9331 124.521 16.8872C124.82 15.8325 125.203 14.9712 125.668 14.3032C126.134 13.6353 126.648 13.1475 127.211 12.8398C127.773 12.5322 128.323 12.3784 128.859 12.3784C129.316 12.3784 129.729 12.4443 130.098 12.5762C130.476 12.6992 130.81 12.8618 131.1 13.064C131.39 13.2573 131.641 13.4771 131.851 13.7231C132.062 13.9692 132.234 14.2153 132.366 14.4614C132.339 14.1626 132.3 13.8462 132.247 13.5122C132.194 13.1694 132.133 12.8179 132.062 12.4575C132.634 12.5718 133.214 12.6465 133.803 12.6816C134.392 12.7168 134.936 12.7344 135.437 12.7344C136.035 12.7344 136.518 12.7212 136.888 12.6948C137.099 12.686 137.292 12.6729 137.468 12.6553C137.371 13.0947 137.283 13.5869 137.204 14.1318C137.125 14.6768 137.055 15.2612 136.993 15.8853C136.94 16.5005 136.896 17.1509 136.861 17.8364C136.835 18.5132 136.822 19.2075 136.822 19.9194C136.822 21.2466 136.888 22.5781 137.019 23.9141C137.151 25.25 137.38 26.5068 137.705 27.6846ZM132.287 20.1304V17.9946C132.287 17.7573 132.273 17.5156 132.247 17.2695C132.221 17.0234 132.159 16.7993 132.062 16.5972C131.975 16.395 131.843 16.2324 131.667 16.1094C131.491 15.9775 131.254 15.9116 130.955 15.9116C130.639 15.9116 130.375 16.0215 130.164 16.2412C129.962 16.4609 129.795 16.7642 129.663 17.1509C129.54 17.5288 129.452 17.9814 129.399 18.5088C129.355 19.0273 129.333 19.5942 129.333 20.2095C129.333 20.561 129.355 20.917 129.399 21.2773C129.452 21.6377 129.536 21.9673 129.65 22.2661C129.764 22.5562 129.918 22.7935 130.111 22.978C130.305 23.1626 130.542 23.2549 130.823 23.2549C131.14 23.2549 131.394 23.145 131.588 22.9253C131.781 22.7056 131.926 22.4331 132.023 22.1079C132.128 21.7827 132.199 21.4443 132.234 21.0928C132.269 20.7324 132.287 20.4116 132.287 20.1304ZM156.478 27.6846C156.311 27.667 156.118 27.6494 155.898 27.6318C155.714 27.6143 155.49 27.6011 155.226 27.5923C154.971 27.5835 154.69 27.5791 154.382 27.5791C153.943 27.5791 153.459 27.5967 152.932 27.6318C152.413 27.667 151.877 27.7329 151.324 27.8296L151.376 24.125C151.042 25.4346 150.55 26.4453 149.9 27.1572C149.258 27.8691 148.502 28.2251 147.632 28.2251C147.36 28.2251 147.052 28.1899 146.709 28.1196C146.367 28.0493 146.015 27.9131 145.655 27.7109C145.303 27.5176 144.956 27.2451 144.613 26.8936C144.279 26.542 143.98 26.0894 143.717 25.5356C143.453 24.9731 143.242 24.2964 143.084 23.5054C142.926 22.7056 142.847 21.7607 142.847 20.6709C142.847 19.1943 142.996 17.9331 143.295 16.8872C143.594 15.8325 143.976 14.9712 144.442 14.3032C144.908 13.6353 145.422 13.1475 145.984 12.8398C146.547 12.5322 147.096 12.3784 147.632 12.3784C148.089 12.3784 148.502 12.4443 148.871 12.5762C149.249 12.6992 149.583 12.8618 149.873 13.064C150.163 13.2573 150.414 13.4771 150.625 13.7231C150.836 13.9692 151.007 14.2153 151.139 14.4614C151.113 14.1626 151.073 13.8462 151.02 13.5122C150.968 13.1694 150.906 12.8179 150.836 12.4575C151.407 12.5718 151.987 12.6465 152.576 12.6816C153.165 12.7168 153.71 12.7344 154.211 12.7344C154.809 12.7344 155.292 12.7212 155.661 12.6948C155.872 12.686 156.065 12.6729 156.241 12.6553C156.144 13.0947 156.057 13.5869 155.977 14.1318C155.898 14.6768 155.828 15.2612 155.767 15.8853C155.714 16.5005 155.67 17.1509 155.635 17.8364C155.608 18.5132 155.595 19.2075 155.595 19.9194C155.595 21.2466 155.661 22.5781 155.793 23.9141C155.925 25.25 156.153 26.5068 156.478 27.6846ZM151.06 20.1304V17.9946C151.06 17.7573 151.047 17.5156 151.02 17.2695C150.994 17.0234 150.933 16.7993 150.836 16.5972C150.748 16.395 150.616 16.2324 150.44 16.1094C150.265 15.9775 150.027 15.9116 149.728 15.9116C149.412 15.9116 149.148 16.0215 148.937 16.2412C148.735 16.4609 148.568 16.7642 148.436 17.1509C148.313 17.5288 148.225 17.9814 148.173 18.5088C148.129 19.0273 148.107 19.5942 148.107 20.2095C148.107 20.561 148.129 20.917 148.173 21.2773C148.225 21.6377 148.309 21.9673 148.423 22.2661C148.538 22.5562 148.691 22.7935 148.885 22.978C149.078 23.1626 149.315 23.2549 149.597 23.2549C149.913 23.2549 150.168 23.145 150.361 22.9253C150.555 22.7056 150.7 22.4331 150.796 22.1079C150.902 21.7827 150.972 21.4443 151.007 21.0928C151.042 20.7324 151.06 20.4116 151.06 20.1304ZM165.338 30.9014C165.338 31.5078 165.197 31.978 164.916 32.312C164.635 32.646 164.279 32.8921 163.848 33.0503C163.417 33.2085 162.943 33.3008 162.424 33.3271C161.914 33.3623 161.427 33.3799 160.961 33.3799C161.005 33.1953 161.036 33.0063 161.053 32.813C161.079 32.6196 161.093 32.4131 161.093 32.1934C161.093 32.0352 161.084 31.8682 161.066 31.6924C161.049 31.5166 161.014 31.354 160.961 31.2046C161.014 31.2573 161.097 31.3057 161.211 31.3496C161.334 31.3936 161.462 31.4287 161.594 31.4551C161.725 31.4814 161.853 31.5034 161.976 31.521C162.108 31.5386 162.213 31.5474 162.292 31.5474C162.53 31.5474 162.745 31.4902 162.938 31.376C163.132 31.2705 163.228 31.0771 163.228 30.7959C163.228 30.6553 163.193 30.5322 163.123 30.4268C163.053 30.3301 162.96 30.251 162.846 30.1895C162.732 30.1279 162.609 30.0796 162.477 30.0444C162.345 30.0181 162.218 30.0049 162.095 30.0049C161.945 30.0049 161.791 30.0137 161.633 30.0312C161.484 30.0576 161.334 30.0972 161.185 30.1499L161.936 28.0405C161.198 27.856 160.543 27.5264 159.972 27.0518C159.41 26.5684 158.935 25.9927 158.548 25.3247C158.162 24.6479 157.867 23.9053 157.665 23.0967C157.472 22.2793 157.375 21.4531 157.375 20.6182C157.375 19.9326 157.445 19.2383 157.586 18.5352C157.735 17.8232 157.946 17.1377 158.219 16.4785C158.5 15.8193 158.843 15.2041 159.247 14.6328C159.651 14.0527 160.108 13.5474 160.618 13.1167C161.128 12.686 161.686 12.3477 162.292 12.1016C162.908 11.8555 163.562 11.7324 164.257 11.7324C164.881 11.7324 165.43 11.8071 165.905 11.9565C166.379 12.106 166.792 12.3037 167.144 12.5498C167.496 12.7959 167.786 13.0815 168.014 13.4067C168.243 13.7231 168.427 14.0527 168.568 14.3955C168.708 14.7295 168.805 15.0635 168.858 15.3975C168.919 15.7314 168.95 16.0391 168.95 16.3203C168.95 16.6631 168.889 17.019 168.766 17.3882C168.651 17.7573 168.48 18.0957 168.251 18.4033C168.023 18.7021 167.733 18.9482 167.381 19.1416C167.03 19.335 166.625 19.4316 166.168 19.4316C165.782 19.4316 165.452 19.3657 165.18 19.2339C164.907 19.1021 164.683 18.9307 164.507 18.7197C164.331 18.5088 164.2 18.2671 164.112 17.9946C164.033 17.7134 163.993 17.4277 163.993 17.1377C163.993 16.5225 164.142 15.9907 164.441 15.5425C164.485 15.6919 164.547 15.8062 164.626 15.8853C164.714 15.9556 164.793 16.0083 164.863 16.0435C164.951 16.0786 165.039 16.1006 165.127 16.1094C165.382 16.1094 165.544 16.0522 165.615 15.938C165.685 15.8237 165.729 15.6919 165.746 15.5425C165.746 15.3931 165.689 15.248 165.575 15.1074C165.461 14.9668 165.263 14.8965 164.982 14.8965C164.903 14.8965 164.788 14.9097 164.639 14.936C164.498 14.9536 164.336 15.0063 164.151 15.0942C163.975 15.1821 163.795 15.314 163.611 15.4897C163.426 15.6567 163.255 15.894 163.097 16.2017C162.947 16.5005 162.824 16.8784 162.727 17.3354C162.631 17.7837 162.582 18.3286 162.582 18.9702C162.582 19.6294 162.679 20.1655 162.872 20.5786C163.066 20.9829 163.294 21.2993 163.558 21.5278C163.83 21.7476 164.116 21.897 164.415 21.9761C164.714 22.0552 164.969 22.0947 165.18 22.0947C165.364 22.0947 165.597 22.064 165.878 22.0024C166.16 21.9321 166.436 21.8091 166.709 21.6333C166.99 21.4575 167.245 21.2158 167.474 20.9082C167.702 20.5918 167.856 20.1875 167.935 19.6953C168.172 20.0469 168.361 20.4688 168.502 20.9609C168.642 21.4443 168.713 21.9497 168.713 22.4771C168.713 23.2153 168.581 23.9141 168.317 24.5732C168.054 25.2324 167.684 25.8169 167.21 26.3267C166.735 26.8364 166.164 27.2539 165.496 27.5791C164.837 27.9131 164.107 28.1108 163.308 28.1724L163.176 28.7393C163.501 28.7393 163.795 28.792 164.059 28.8975C164.323 29.0029 164.547 29.1523 164.731 29.3457C164.925 29.5391 165.074 29.7676 165.18 30.0312C165.285 30.2949 165.338 30.585 165.338 30.9014ZM183.531 27.6846C183.364 27.667 183.171 27.6494 182.951 27.6318C182.767 27.6143 182.542 27.6011 182.279 27.5923C182.024 27.5835 181.743 27.5791 181.435 27.5791C180.996 27.5791 180.512 27.5967 179.985 27.6318C179.466 27.667 178.93 27.7329 178.376 27.8296L178.429 24.125C178.095 25.4346 177.603 26.4453 176.953 27.1572C176.311 27.8691 175.555 28.2251 174.685 28.2251C174.413 28.2251 174.105 28.1899 173.762 28.1196C173.419 28.0493 173.068 27.9131 172.707 27.7109C172.356 27.5176 172.009 27.2451 171.666 26.8936C171.332 26.542 171.033 26.0894 170.769 25.5356C170.506 24.9731 170.295 24.2964 170.137 23.5054C169.978 22.7056 169.899 21.7607 169.899 20.6709C169.899 19.1943 170.049 17.9331 170.348 16.8872C170.646 15.8325 171.029 14.9712 171.495 14.3032C171.96 13.6353 172.475 13.1475 173.037 12.8398C173.6 12.5322 174.149 12.3784 174.685 12.3784C175.142 12.3784 175.555 12.4443 175.924 12.5762C176.302 12.6992 176.636 12.8618 176.926 13.064C177.216 13.2573 177.467 13.4771 177.678 13.7231C177.889 13.9692 178.06 14.2153 178.192 14.4614C178.165 14.1626 178.126 13.8462 178.073 13.5122C178.02 13.1694 177.959 12.8179 177.889 12.4575C178.46 12.5718 179.04 12.6465 179.629 12.6816C180.218 12.7168 180.763 12.7344 181.264 12.7344C181.861 12.7344 182.345 12.7212 182.714 12.6948C182.925 12.686 183.118 12.6729 183.294 12.6553C183.197 13.0947 183.109 13.5869 183.03 14.1318C182.951 14.6768 182.881 15.2612 182.819 15.8853C182.767 16.5005 182.723 17.1509 182.687 17.8364C182.661 18.5132 182.648 19.2075 182.648 19.9194C182.648 21.2466 182.714 22.5781 182.846 23.9141C182.977 25.25 183.206 26.5068 183.531 27.6846ZM178.113 20.1304V17.9946C178.113 17.7573 178.1 17.5156 178.073 17.2695C178.047 17.0234 177.985 16.7993 177.889 16.5972C177.801 16.395 177.669 16.2324 177.493 16.1094C177.317 15.9775 177.08 15.9116 176.781 15.9116C176.465 15.9116 176.201 16.0215 175.99 16.2412C175.788 16.4609 175.621 16.7642 175.489 17.1509C175.366 17.5288 175.278 17.9814 175.225 18.5088C175.182 19.0273 175.16 19.5942 175.16 20.2095C175.16 20.561 175.182 20.917 175.225 21.2773C175.278 21.6377 175.362 21.9673 175.476 22.2661C175.59 22.5562 175.744 22.7935 175.937 22.978C176.131 23.1626 176.368 23.2549 176.649 23.2549C176.966 23.2549 177.221 23.145 177.414 22.9253C177.607 22.7056 177.752 22.4331 177.849 22.1079C177.954 21.7827 178.025 21.4443 178.06 21.0928C178.095 20.7324 178.113 20.4116 178.113 20.1304ZM190.901 27.4473C190.751 27.4385 190.576 27.4253 190.373 27.4077C190.198 27.3989 189.991 27.3901 189.754 27.3813C189.517 27.3726 189.244 27.3682 188.936 27.3682C188.365 27.3682 187.706 27.3945 186.959 27.4473C186.212 27.4912 185.403 27.5791 184.533 27.7109C184.7 27.377 184.841 26.9595 184.955 26.4585C185.069 25.9487 185.162 25.4082 185.232 24.8369C185.311 24.2568 185.368 23.6724 185.403 23.0835C185.447 22.4946 185.478 21.9541 185.496 21.4619C185.513 20.9697 185.522 20.5522 185.522 20.2095C185.531 19.8667 185.535 19.6514 185.535 19.5635C185.517 18.4209 185.478 17.353 185.416 16.3599C185.39 15.938 185.355 15.5117 185.311 15.0811C185.276 14.6504 185.232 14.2461 185.179 13.8682C185.126 13.4814 185.065 13.1387 184.995 12.8398C184.933 12.5322 184.858 12.2905 184.77 12.1147C185.482 12.2378 186.142 12.3213 186.748 12.3652C187.354 12.4092 187.904 12.4312 188.396 12.4312C188.712 12.4312 188.994 12.4268 189.24 12.418C189.495 12.4004 189.71 12.3828 189.886 12.3652C190.097 12.3477 190.281 12.3257 190.439 12.2993C190.281 13.0903 190.149 14.0439 190.044 15.1602C189.947 16.2764 189.899 17.4717 189.899 18.7461C189.899 19.4756 189.916 20.2139 189.952 20.9609C189.987 21.708 190.044 22.4551 190.123 23.2021C190.202 23.9404 190.303 24.6699 190.426 25.3906C190.558 26.1025 190.716 26.7881 190.901 27.4473ZM188.884 11.4819L186.26 10.3086C186.796 9.53516 187.297 8.79248 187.763 8.08057C187.956 7.78174 188.154 7.47412 188.356 7.15771C188.567 6.84131 188.761 6.53809 188.936 6.24805C189.121 5.94922 189.288 5.66797 189.437 5.4043C189.587 5.14062 189.705 4.9165 189.793 4.73193C190.066 4.93408 190.395 5.15381 190.782 5.39111C191.178 5.62842 191.56 5.84814 191.929 6.05029C192.351 6.2876 192.79 6.5293 193.247 6.77539L188.884 11.4819Z" fill="white"/>
</svg>
